<?xml version="1.0" standalone="no"?>
<!DOCTYPE svg PUBLIC "-//W3C//DTD SVG 20010904//EN"
 "http://www.w3.org/TR/2001/REC-SVG-20010904/DTD/svg10.dtd">
<svg version="1.0" xmlns="http://www.w3.org/2000/svg"
 width="2000.000000pt" height="750.000000pt" viewBox="0 0 2000.000000 750.000000"
 preserveAspectRatio="xMidYMid meet">
<metadata>
Created by potrace 1.15, written by Peter Selinger 2001-2017
</metadata>
<g transform="translate(0.000000,750.000000) scale(0.100000,-0.100000)"
fill="#000000" stroke="none">
<path d="M960 5205 l0 -45 185 0 185 0 0 -1475 0 -1475 -185 0 -185 0 0 -50 0
-50 1110 0 1110 0 0 475 0 475 -50 0 -50 0 0 -113 c0 -431 -116 -632 -411
-708 -78 -21 -112 -23 -506 -26 l-423 -5 0 1476 0 1476 185 0 185 0 0 45 0 45
-575 0 -575 0 0 -45z"/>
<path d="M3160 5205 l0 -45 184 0 185 0 4 -1147 c3 -1023 6 -1157 21 -1233 64
-328 193 -511 438 -624 223 -104 636 -135 916 -70 364 84 570 335 622 754 6
54 10 490 10 1202 l0 1118 190 0 190 0 0 45 0 45 -410 0 -410 0 0 -45 0 -45
175 0 176 0 -4 -1142 c-3 -1116 -3 -1145 -24 -1233 -78 -338 -263 -535 -560
-597 -81 -16 -123 -19 -238 -15 -82 3 -165 12 -200 21 -206 56 -343 187 -416
398 -65 192 -63 146 -66 1416 l-4 1152 211 0 210 0 0 45 0 45 -600 0 -600 0 0
-45z"/>
<path d="M6050 5205 l0 -45 149 0 148 0 432 -750 c238 -413 431 -754 429 -758
-2 -5 -203 -331 -447 -725 l-444 -717 -204 0 -203 0 0 -50 0 -50 505 0 505 0
0 50 0 50 -234 2 -233 3 407 663 c225 365 410 665 412 668 4 4 768 -1319 768
-1330 0 -3 -76 -6 -170 -6 l-170 0 0 -45 0 -45 590 0 590 0 0 45 0 45 -162 2
-163 3 -498 860 c-364 629 -496 864 -490 876 4 9 161 285 348 613 l340 595
198 1 197 0 0 45 0 45 -465 0 -465 0 0 -45 0 -45 205 -2 204 -3 -314 -539
c-173 -297 -318 -543 -323 -548 -4 -4 -150 239 -323 540 l-316 547 189 3 188
2 0 45 0 45 -590 0 -590 0 0 -45z"/>
<path d="M9000 5205 l0 -45 185 0 185 0 0 -1475 0 -1475 -185 0 -185 0 0 -45
0 -45 1120 0 1120 0 0 470 0 470 -50 0 -50 0 0 -92 c0 -176 -45 -379 -106
-483 -63 -109 -154 -183 -279 -228 -116 -41 -188 -47 -594 -47 l-381 0 0 740
0 740 145 0 c147 0 227 -11 280 -38 106 -53 173 -163 182 -301 l6 -81 48 0 49
0 0 455 0 455 -50 0 -50 0 0 -54 c0 -30 -9 -84 -21 -121 -16 -53 -31 -78 -72
-120 -80 -81 -131 -97 -344 -103 l-173 -5 0 693 0 692 418 -4 c457 -5 473 -7
599 -69 70 -34 146 -102 188 -169 65 -102 115 -304 115 -462 l0 -68 50 0 50 0
0 430 0 430 -1100 0 -1100 0 0 -45z"/>
<path d="M11430 4775 l0 -475 43 0 44 0 7 152 c14 316 53 462 150 566 25 27
67 60 94 75 95 52 146 59 435 64 l267 5 0 -1476 0 -1476 -230 0 -230 0 0 -45
0 -45 660 0 660 0 0 45 0 45 -225 0 -225 0 0 1476 0 1476 268 -5 c281 -5 321
-11 419 -58 66 -32 134 -103 172 -180 49 -100 71 -225 78 -436 l6 -183 48 0
49 0 0 475 0 475 -1245 0 -1245 0 0 -475z"/>
<path d="M14060 4775 l0 -475 43 0 44 0 7 152 c14 316 53 462 150 566 25 27
67 60 94 75 95 52 146 59 435 64 l267 5 0 -1476 0 -1476 -230 0 -230 0 0 -45
0 -45 660 0 660 0 0 45 0 45 -225 0 -225 0 0 1476 0 1476 268 -5 c281 -5 321
-11 419 -58 66 -32 134 -103 172 -180 49 -100 71 -225 78 -436 l6 -183 48 0
49 0 0 475 0 475 -1245 0 -1245 0 0 -475z"/>
<path d="M16770 5205 l0 -45 185 0 185 0 0 -1475 0 -1475 -185 0 -185 0 0 -45
0 -45 1120 0 1120 0 0 470 0 470 -50 0 -50 0 0 -92 c0 -176 -45 -379 -106
-483 -63 -109 -154 -183 -279 -228 -116 -41 -188 -47 -594 -47 l-381 0 0 740
0 740 145 0 c147 0 227 -11 280 -38 106 -53 173 -163 182 -301 l6 -81 48 0 49
0 0 455 0 455 -50 0 -50 0 0 -54 c0 -30 -9 -84 -21 -121 -16 -53 -31 -78 -72
-120 -80 -81 -131 -97 -344 -103 l-173 -5 0 693 0 692 418 -4 c457 -5 473 -7
599 -69 70 -34 146 -102 188 -169 65 -102 115 -304 115 -462 l0 -68 50 0 50 0
0 430 0 430 -1100 0 -1100 0 0 -45z"/>
</g>
</svg>
