<svg viewBox="0 0 48 48" xmlns="http://www.w3.org/2000/svg" xmlns:xlink="http://www.w3.org/1999/xlink" >
<defs>



 <path fill="#000000" id="i-416" d="M5,35h26c1.542,0,3-1.458,3-3V18c0-1.542-1.458-3-3-3h-7v-2c0-1.271-0.729-2-2-2h-8c-1.271,0-2,0.729-2,2v2H5 c-1.542,0-3,1.458-3,3v14C2,33.542,3.458,35,5,35z M30,17h1c0.448,0,1,0.551,1,1v14c0,0.448-0.552,1-1,1h-1V17z M26,17h2v16h-2V17z M14,13h8v2h-8V13z M12,17h12v16H12V17z M8,17h2v16H8V17z M4,18c0-0.449,0.551-1,1-1h1v16H5c-0.449,0-1-0.552-1-1V18z M45.53,1.848 L38,6.554V35c0,2.935-2.393,4-4,4H2v-2h32c0.464-0.008,2-0.174,2-2V5.446l8.47-5.294L45.53,1.848z M26,40c-2.206,0-4,1.794-4,4 s1.794,4,4,4c2.206,0,4-1.794,4-4S28.206,40,26,40z M26,46c-1.103,0-2-0.897-2-2s0.897-2,2-2c1.103,0,2,0.897,2,2S27.103,46,26,46z M10,40c-2.206,0-4,1.794-4,4s1.794,4,4,4s4-1.794,4-4S12.206,40,10,40z M10,46c-1.103,0-2-0.897-2-2s0.897-2,2-2s2,0.897,2,2 S11.103,46,10,46z"/> 
</defs>

<use x="0" y="0" xlink:href="#i-416"/>

</svg>